<?xml version="1.0" encoding="us-ascii" standalone="no"?><svg xmlns="http://www.w3.org/2000/svg" xmlns:xlink="http://www.w3.org/1999/xlink" contentStyleType="text/css" height="910px" preserveAspectRatio="none" style="width:287px;height:910px;background:#FFFFFF;" version="1.1" viewBox="0 0 287 910" width="287px" zoomAndPan="magnify"><defs/><g><text fill="#000000" font-family="sans-serif" font-size="14" font-weight="bold" lengthAdjust="spacing" textLength="74" x="99.5" y="23.5352">OSI Model</text><text fill="#000000" font-family="sans-serif" font-size="14" font-weight="bold" lengthAdjust="spacing" textLength="230" x="21.5" y="40.0234">(Open Systems Interconnection)</text><!--entity App--><g id="elem_App"><rect fill="#FFA500" height="69.4648" rx="2.5" ry="2.5" style="stroke:#000000;stroke-width:0.5;" width="190" x="49" y="834.9766"/><text fill="#000000" font-family="sans-serif" font-size="14" font-style="italic" lengthAdjust="spacing" textLength="92" x="98" y="858.5117">&#171;Application&#187;</text><text fill="#000000" font-family="sans-serif" font-size="14" lengthAdjust="spacing" textLength="135" x="59" y="875">Layer 7: Application</text><text fill="#000000" font-family="sans-serif" font-size="14" lengthAdjust="spacing" textLength="170" x="59" y="891.4883">HTTP, FTP, React, NodeJS</text></g><!--entity Pres--><g id="elem_Pres"><rect fill="#FFFF00" height="69.4648" rx="2.5" ry="2.5" style="stroke:#000000;stroke-width:0.5;" width="224" x="32" y="705.9766"/><text fill="#000000" font-family="sans-serif" font-size="14" font-style="italic" lengthAdjust="spacing" textLength="100" x="94" y="729.5117">&#171;Presentation&#187;</text><text fill="#000000" font-family="sans-serif" font-size="14" lengthAdjust="spacing" textLength="143" x="42" y="746">Layer 6: Presentation</text><text fill="#000000" font-family="sans-serif" font-size="14" lengthAdjust="spacing" textLength="204" x="42" y="762.4883">TLS/HTTPS, JSON serialization</text></g><!--entity Sess--><g id="elem_Sess"><rect fill="#90EE90" height="69.4648" rx="2.5" ry="2.5" style="stroke:#000000;stroke-width:0.5;" width="260" x="14" y="576.9766"/><text fill="#000000" font-family="sans-serif" font-size="14" font-style="italic" lengthAdjust="spacing" textLength="66" x="111" y="600.5117">&#171;Session&#187;</text><text fill="#000000" font-family="sans-serif" font-size="14" lengthAdjust="spacing" textLength="109" x="24" y="617">Layer 5: Session</text><text fill="#000000" font-family="sans-serif" font-size="14" lengthAdjust="spacing" textLength="240" x="24" y="633.4883">User session management, cookies</text></g><!--entity Trans--><g id="elem_Trans"><rect fill="#ADD8E6" height="69.4648" rx="2.5" ry="2.5" style="stroke:#000000;stroke-width:0.5;" width="184" x="52" y="447.9766"/><text fill="#000000" font-family="sans-serif" font-size="14" font-style="italic" lengthAdjust="spacing" textLength="82" x="103" y="471.5117">&#171;Transport&#187;</text><text fill="#000000" font-family="sans-serif" font-size="14" lengthAdjust="spacing" textLength="125" x="62" y="488">Layer 4: Transport</text><text fill="#000000" font-family="sans-serif" font-size="14" lengthAdjust="spacing" textLength="164" x="62" y="504.4883">TCP, UDP, Port numbers</text></g><!--entity Net--><g id="elem_Net"><rect fill="#00FFFF" height="69.4648" rx="2.5" ry="2.5" style="stroke:#000000;stroke-width:0.5;" width="259" x="14.5" y="318.9766"/><text fill="#000000" font-family="sans-serif" font-size="14" font-style="italic" lengthAdjust="spacing" textLength="71" x="108.5" y="342.5117">&#171;Network&#187;</text><text fill="#000000" font-family="sans-serif" font-size="14" lengthAdjust="spacing" textLength="114" x="24.5" y="359">Layer 3: Network</text><text fill="#000000" font-family="sans-serif" font-size="14" lengthAdjust="spacing" textLength="239" x="24.5" y="375.4883">IP Addressing, Routing, Traceroute</text></g><!--entity Datalink--><g id="elem_Datalink"><rect fill="#DDA0DD" height="69.4648" rx="2.5" ry="2.5" style="stroke:#000000;stroke-width:0.5;" width="274" x="7" y="189.9766"/><text fill="#000000" font-family="sans-serif" font-size="14" font-style="italic" lengthAdjust="spacing" textLength="73" x="107.5" y="213.5117">&#171;DataLink&#187;</text><text fill="#000000" font-family="sans-serif" font-size="14" lengthAdjust="spacing" textLength="120" x="17" y="230">Layer 2: Data Link</text><text fill="#000000" font-family="sans-serif" font-size="14" lengthAdjust="spacing" textLength="254" x="17" y="246.4883">MAC Addresses, SSID, Ethernet/Wi-Fi</text></g><!--entity Phys--><g id="elem_Phys"><rect fill="#D3D3D3" height="69.4648" rx="2.5" ry="2.5" style="stroke:#000000;stroke-width:0.5;" width="204" x="42" y="60.9766"/><text fill="#000000" font-family="sans-serif" font-size="14" font-style="italic" lengthAdjust="spacing" textLength="68" x="110" y="84.5117">&#171;Physical&#187;</text><text fill="#000000" font-family="sans-serif" font-size="14" lengthAdjust="spacing" textLength="111" x="52" y="101">Layer 1: Physical</text><text fill="#000000" font-family="sans-serif" font-size="14" lengthAdjust="spacing" textLength="184" x="52" y="117.4883">Cables, RF signals, Routers</text></g><!--link Phys to Datalink--><g id="link_Phys_Datalink"><path d="M144,130.1766 C144,148.5466 144,165.2266 144,183.6166 " fill="none" id="Phys-to-Datalink" style="stroke:#181818;stroke-width:1.0;"/><polygon fill="#181818" points="144,189.6166,148,180.6166,144,184.6166,140,180.6166,144,189.6166" style="stroke:#181818;stroke-width:1.0;"/></g><!--link Datalink to Net--><g id="link_Datalink_Net"><path d="M144,259.1766 C144,277.5466 144,294.2266 144,312.6166 " fill="none" id="Datalink-to-Net" style="stroke:#181818;stroke-width:1.0;"/><polygon fill="#181818" points="144,318.6166,148,309.6166,144,313.6166,140,309.6166,144,318.6166" style="stroke:#181818;stroke-width:1.0;"/></g><!--link Net to Trans--><g id="link_Net_Trans"><path d="M144,388.1766 C144,406.5466 144,423.2266 144,441.6166 " fill="none" id="Net-to-Trans" style="stroke:#181818;stroke-width:1.0;"/><polygon fill="#181818" points="144,447.6166,148,438.6166,144,442.6166,140,438.6166,144,447.6166" style="stroke:#181818;stroke-width:1.0;"/></g><!--link Trans to Sess--><g id="link_Trans_Sess"><path d="M144,517.1766 C144,535.5466 144,552.2266 144,570.6166 " fill="none" id="Trans-to-Sess" style="stroke:#181818;stroke-width:1.0;"/><polygon fill="#181818" points="144,576.6166,148,567.6166,144,571.6166,140,567.6166,144,576.6166" style="stroke:#181818;stroke-width:1.0;"/></g><!--link Sess to Pres--><g id="link_Sess_Pres"><path d="M144,646.1766 C144,664.5466 144,681.2266 144,699.6166 " fill="none" id="Sess-to-Pres" style="stroke:#181818;stroke-width:1.0;"/><polygon fill="#181818" points="144,705.6166,148,696.6166,144,700.6166,140,696.6166,144,705.6166" style="stroke:#181818;stroke-width:1.0;"/></g><!--link Pres to App--><g id="link_Pres_App"><path d="M144,775.1766 C144,793.5466 144,810.2266 144,828.6166 " fill="none" id="Pres-to-App" style="stroke:#181818;stroke-width:1.0;"/><polygon fill="#181818" points="144,834.6166,148,825.6166,144,829.6166,140,825.6166,144,834.6166" style="stroke:#181818;stroke-width:1.0;"/></g><!--SRC=[RPBRQXin48RlzHH3hbgm2Jt34Wm-rAs34vkiGodiZR8UriBQaP5aWblwxfcH3zbczsRHQF_vPZJ_H1CjmYAVmPrReotetMA71FaXHAm3p2YYBnqHbj4uUgzKs1hQQQzhy7odgUBqlmfWfCjjvTsUrcDddR-v6UvsrfHQqWO3M7YMOfTkwJ4WnRFmDrhhdhk4EOPmrCnDjOa_F29rwLPSAkoSZsVboEuxAzzZV7P-oxBnGNUY9ZhgkI6HBEs-xcn_SmZyJFlQbZw8plar-gI1aUKazK-frubTpVK1FNpBe36cWdwkLiiUJENpWBgCFRXdLsxpAz11bF1ch6tYrmoQ0oreDS-l1Pltu3PVt4D0RxGrVzBln1KzlFMXJVwImSc1WXwPmgGKGQr9LrXpRWzAvxO6G-AA6XgsjP6VCxYOnPsE-TcF4_uiEGRQrq_eZwYaWl-iRTC-PN1ojA3P4eRhjPVILF4mtJwc0mDAPFiY9YxheR47RUR736G7G9QWeBlX-8p5q8Cydqrwy3rkq1F6wr-cFpK9AocMCw2vGMtu1_Rgj3q5ZVMJ5UZ358AfIDjmRFiy0b52SzsKIbVz_k1IJrqAooq_Iya3vPm6fuvZb5XCKSaWYSHwbTP08jumzG80]--></g></svg>